<mxfile host="app.diagrams.net" modified="2023-06-08T16:40:23.578Z" agent="Mozilla/5.0 (Windows NT 10.0; Win64; x64) AppleWebKit/537.36 (KHTML, like Gecko) Chrome/114.0.0.0 Safari/537.36" etag="22xQpUTK2BlB61kspTAb" version="21.3.7" type="device">
  <diagram name="Page-1" id="z_frvrrQPT-G_EjsReeM">
    <mxGraphModel dx="2117" dy="541" grid="1" gridSize="10" guides="1" tooltips="1" connect="1" arrows="1" fold="1" page="1" pageScale="1" pageWidth="827" pageHeight="1169" math="0" shadow="0">
      <root>
        <mxCell id="0" />
        <mxCell id="1" parent="0" />
        <mxCell id="N6xFN_l9nyAqw3fwIyUV-11" value="" style="edgeStyle=orthogonalEdgeStyle;rounded=0;orthogonalLoop=1;jettySize=auto;html=1;" edge="1" parent="1" source="N6xFN_l9nyAqw3fwIyUV-1" target="N6xFN_l9nyAqw3fwIyUV-5">
          <mxGeometry relative="1" as="geometry" />
        </mxCell>
        <mxCell id="N6xFN_l9nyAqw3fwIyUV-1" value="BEGIN" style="ellipse;whiteSpace=wrap;html=1;" vertex="1" parent="1">
          <mxGeometry x="354" y="50" width="120" height="80" as="geometry" />
        </mxCell>
        <mxCell id="N6xFN_l9nyAqw3fwIyUV-17" value="" style="edgeStyle=orthogonalEdgeStyle;rounded=0;orthogonalLoop=1;jettySize=auto;html=1;" edge="1" parent="1" source="N6xFN_l9nyAqw3fwIyUV-2" target="N6xFN_l9nyAqw3fwIyUV-10">
          <mxGeometry relative="1" as="geometry" />
        </mxCell>
        <mxCell id="N6xFN_l9nyAqw3fwIyUV-2" value="max =b" style="rounded=0;whiteSpace=wrap;html=1;" vertex="1" parent="1">
          <mxGeometry x="550" y="400" width="120" height="60" as="geometry" />
        </mxCell>
        <mxCell id="N6xFN_l9nyAqw3fwIyUV-18" style="edgeStyle=orthogonalEdgeStyle;rounded=0;orthogonalLoop=1;jettySize=auto;html=1;entryX=0.5;entryY=0;entryDx=0;entryDy=0;" edge="1" parent="1" source="N6xFN_l9nyAqw3fwIyUV-3" target="N6xFN_l9nyAqw3fwIyUV-10">
          <mxGeometry relative="1" as="geometry">
            <Array as="points">
              <mxPoint x="414" y="480" />
              <mxPoint x="610" y="480" />
            </Array>
          </mxGeometry>
        </mxCell>
        <mxCell id="N6xFN_l9nyAqw3fwIyUV-3" value="max = a" style="rounded=0;whiteSpace=wrap;html=1;" vertex="1" parent="1">
          <mxGeometry x="354" y="400" width="120" height="60" as="geometry" />
        </mxCell>
        <mxCell id="N6xFN_l9nyAqw3fwIyUV-12" value="" style="edgeStyle=orthogonalEdgeStyle;rounded=0;orthogonalLoop=1;jettySize=auto;html=1;" edge="1" parent="1" source="N6xFN_l9nyAqw3fwIyUV-5" target="N6xFN_l9nyAqw3fwIyUV-6">
          <mxGeometry relative="1" as="geometry" />
        </mxCell>
        <mxCell id="N6xFN_l9nyAqw3fwIyUV-5" value="INPUT&amp;nbsp; a, b, c" style="shape=parallelogram;perimeter=parallelogramPerimeter;whiteSpace=wrap;html=1;fixedSize=1;" vertex="1" parent="1">
          <mxGeometry x="354" y="180" width="120" height="60" as="geometry" />
        </mxCell>
        <mxCell id="N6xFN_l9nyAqw3fwIyUV-13" value="" style="edgeStyle=orthogonalEdgeStyle;rounded=0;orthogonalLoop=1;jettySize=auto;html=1;" edge="1" parent="1" source="N6xFN_l9nyAqw3fwIyUV-6" target="N6xFN_l9nyAqw3fwIyUV-3">
          <mxGeometry relative="1" as="geometry" />
        </mxCell>
        <mxCell id="N6xFN_l9nyAqw3fwIyUV-14" value="" style="edgeStyle=orthogonalEdgeStyle;rounded=0;orthogonalLoop=1;jettySize=auto;html=1;" edge="1" parent="1" source="N6xFN_l9nyAqw3fwIyUV-6" target="N6xFN_l9nyAqw3fwIyUV-7">
          <mxGeometry relative="1" as="geometry" />
        </mxCell>
        <mxCell id="N6xFN_l9nyAqw3fwIyUV-6" value="IF a&amp;gt;b AND a&amp;gt;c" style="rhombus;whiteSpace=wrap;html=1;" vertex="1" parent="1">
          <mxGeometry x="341" y="280" width="146" height="80" as="geometry" />
        </mxCell>
        <mxCell id="N6xFN_l9nyAqw3fwIyUV-15" value="" style="edgeStyle=orthogonalEdgeStyle;rounded=0;orthogonalLoop=1;jettySize=auto;html=1;" edge="1" parent="1" source="N6xFN_l9nyAqw3fwIyUV-7" target="N6xFN_l9nyAqw3fwIyUV-2">
          <mxGeometry relative="1" as="geometry" />
        </mxCell>
        <mxCell id="N6xFN_l9nyAqw3fwIyUV-16" style="edgeStyle=orthogonalEdgeStyle;rounded=0;orthogonalLoop=1;jettySize=auto;html=1;entryX=0.5;entryY=0;entryDx=0;entryDy=0;" edge="1" parent="1" source="N6xFN_l9nyAqw3fwIyUV-7" target="N6xFN_l9nyAqw3fwIyUV-8">
          <mxGeometry relative="1" as="geometry" />
        </mxCell>
        <mxCell id="N6xFN_l9nyAqw3fwIyUV-7" value="IF b&amp;gt;c" style="rhombus;whiteSpace=wrap;html=1;" vertex="1" parent="1">
          <mxGeometry x="570" y="280" width="80" height="80" as="geometry" />
        </mxCell>
        <mxCell id="N6xFN_l9nyAqw3fwIyUV-19" style="edgeStyle=orthogonalEdgeStyle;rounded=0;orthogonalLoop=1;jettySize=auto;html=1;entryX=0.5;entryY=0;entryDx=0;entryDy=0;" edge="1" parent="1" source="N6xFN_l9nyAqw3fwIyUV-8" target="N6xFN_l9nyAqw3fwIyUV-10">
          <mxGeometry relative="1" as="geometry">
            <Array as="points">
              <mxPoint x="790" y="480" />
              <mxPoint x="610" y="480" />
            </Array>
          </mxGeometry>
        </mxCell>
        <mxCell id="N6xFN_l9nyAqw3fwIyUV-8" value="max = c" style="rounded=0;whiteSpace=wrap;html=1;" vertex="1" parent="1">
          <mxGeometry x="730" y="400" width="120" height="60" as="geometry" />
        </mxCell>
        <mxCell id="N6xFN_l9nyAqw3fwIyUV-9" value="END" style="ellipse;whiteSpace=wrap;html=1;" vertex="1" parent="1">
          <mxGeometry x="550" y="610" width="120" height="80" as="geometry" />
        </mxCell>
        <mxCell id="N6xFN_l9nyAqw3fwIyUV-20" value="" style="edgeStyle=orthogonalEdgeStyle;rounded=0;orthogonalLoop=1;jettySize=auto;html=1;" edge="1" parent="1" source="N6xFN_l9nyAqw3fwIyUV-10" target="N6xFN_l9nyAqw3fwIyUV-9">
          <mxGeometry relative="1" as="geometry" />
        </mxCell>
        <mxCell id="N6xFN_l9nyAqw3fwIyUV-10" value="DISPLAY max" style="shape=parallelogram;perimeter=parallelogramPerimeter;whiteSpace=wrap;html=1;fixedSize=1;" vertex="1" parent="1">
          <mxGeometry x="550" y="510" width="120" height="60" as="geometry" />
        </mxCell>
        <mxCell id="N6xFN_l9nyAqw3fwIyUV-21" value="&lt;font style=&quot;font-size: 18px;&quot;&gt;BEGIN&lt;br&gt;&lt;span style=&quot;white-space: pre;&quot;&gt;&#x9;&lt;/span&gt;INPUT a, b, c&lt;br&gt;&lt;span style=&quot;white-space: pre;&quot;&gt;&#x9;&lt;/span&gt;IF a&amp;gt;b &lt;br&gt;&lt;span style=&quot;white-space: pre;&quot;&gt;&#x9;&lt;/span&gt;&lt;span style=&quot;white-space: pre;&quot;&gt;&#x9;&lt;/span&gt;AND a&amp;gt;c&lt;br&gt;&lt;span style=&quot;white-space: pre;&quot;&gt;&#x9;&lt;/span&gt;&lt;span style=&quot;white-space: pre;&quot;&gt;&#x9;&lt;/span&gt;max = a&lt;br&gt;&lt;span style=&quot;white-space: pre;&quot;&gt;&#x9;&lt;/span&gt;ELSE&lt;br&gt;&lt;span style=&quot;white-space: pre;&quot;&gt;&#x9;&lt;/span&gt;&lt;span style=&quot;white-space: pre;&quot;&gt;&#x9;&lt;/span&gt;IF b&amp;gt;c&lt;br&gt;&lt;span style=&quot;white-space: pre;&quot;&gt;&#x9;&lt;/span&gt;&lt;span style=&quot;white-space: pre;&quot;&gt;&#x9;&lt;/span&gt;&lt;span style=&quot;white-space: pre;&quot;&gt;&#x9;&lt;/span&gt;max =b&lt;br&gt;&lt;span style=&quot;white-space: pre;&quot;&gt;&#x9;&lt;span style=&quot;white-space: pre;&quot;&gt;&#x9;&lt;/span&gt;&lt;/span&gt;ELSE&lt;br&gt;&lt;span style=&quot;white-space: pre;&quot;&gt;&#x9;&lt;/span&gt;&lt;span style=&quot;white-space: pre;&quot;&gt;&#x9;&lt;span style=&quot;white-space: pre;&quot;&gt;&#x9;&lt;/span&gt;&lt;/span&gt;max =c&lt;br&gt;&lt;span style=&quot;white-space: pre;&quot;&gt;&#x9;&lt;/span&gt;DISPLAY max&lt;br&gt;END&lt;br&gt;&lt;/font&gt;" style="text;html=1;strokeColor=none;fillColor=none;align=left;verticalAlign=middle;whiteSpace=wrap;rounded=0;" vertex="1" parent="1">
          <mxGeometry x="-70" y="240" width="370" height="280" as="geometry" />
        </mxCell>
      </root>
    </mxGraphModel>
  </diagram>
</mxfile>
